<svg xmlns="http://www.w3.org/2000/svg">
  <symbol viewBox="0 0 14 14" id="email">
    <title>email</title>
    <g>
      <g>
        <path d="M7,9L5.268,7.484l-4.952,4.245C0.496,11.896,0.739,12,1.007,12h11.986
      c0.267,0,0.509-0.104,0.688-0.271L8.732,7.484L7,9z"/>
        <path d="M13.684,2.271C13.504,2.103,13.262,2,12.993,2H1.007C0.74,2,0.498,2.104,0.318,2.273L7,8
      L13.684,2.271z"/>
        <polygon points="0,2.878 0,11.186 4.833,7.079 		"/>
        <polygon points="9.167,7.079 14,11.186 14,2.875 		"/>
      </g>
    </g>
  </symbol>
  <symbol viewBox="0 0 408.788 408.788" id="facebook">
    <title>facebook</title>
    <path d="M353.701,0H55.087C24.665,0,0.002,24.662,0.002,55.085v298.616c0,30.423,24.662,55.085,55.085,55.085
  h147.275l0.251-146.078h-37.951c-4.932,0-8.935-3.988-8.954-8.92l-0.182-47.087c-0.019-4.959,3.996-8.989,8.955-8.989h37.882
  v-45.498c0-52.8,32.247-81.55,79.348-81.55h38.65c4.945,0,8.955,4.009,8.955,8.955v39.704c0,4.944-4.007,8.952-8.95,8.955
  l-23.719,0.011c-25.615,0-30.575,12.172-30.575,30.035v39.389h56.285c5.363,0,9.524,4.683,8.892,10.009l-5.581,47.087
  c-0.534,4.506-4.355,7.901-8.892,7.901h-50.453l-0.251,146.078h87.631c30.422,0,55.084-24.662,55.084-55.084V55.085
  C408.786,24.662,384.124,0,353.701,0z"/>
  </symbol>
  <symbol viewBox="0 0 112.2 112.2" id="google">
    <title>google</title>
    <path d="M56.1,0a56.1,56.1,0,1,0,56.1,56.1A56.1,56.1,0,0,0,56.1,0Zm4,71.83c-5.73,7.38-16.32,9.54-24.94,6.65A23.26,23.26,0,0,1,19.77,60.2a21.45,21.45,0,0,1-.24-3.59,20,20,0,0,1,.3-4.28C21.63,42.17,31,33.64,41.46,33.52a23.09,23.09,0,0,1,16.61,5.7h0c-1.89,2.07-3.81,4.13-5.87,6.05-4.05-2.47-8.93-4.34-13.67-2.68-7.64,2.18-12.27,11.2-9.44,18.68a13,13,0,0,0,2.95,5.13,14.68,14.68,0,0,0,16.33,3.68c3.85-1.38,6.39-4.93,7.51-8.75-4.42-.09-8.84,0-13.25-.16h0q0-3.95,0-7.87c7.37,0,14.75,0,22.12,0h0C65.2,59.77,64.25,66.66,60.06,71.83ZM92.32,53.32V59.9h0l-6.6,0c0,2.21,0,4.41,0,6.62H79.09c0-2.21,0-4.41,0-6.61l-6.61,0h0V53.32h0l6.61,0c0-2.19,0-4.4,0-6.6h6.57c0,2.2,0,4.41,0,6.6l6.6,0Z"/>
  </symbol>
  <symbol viewBox="0 0 505 505" id="link">
    <title>link</title>
    <g>
      <path d="M252.5,0C185.1,0,121.6,26.3,74,74S0,185.1,0,252.5C0,319.9,26.3,383.4,74,431s111.1,74,178.5,74
    c67.4,0,130.9-26.3,178.5-74s74-111.1,74-178.5c0-67.4-26.3-130.9-74-178.5S319.9,0,252.5,0z M392.3,236.6
    c-26.5,26.5-65.9,32.4-98.2,17.8l27.9-27.9c0.1-0.1,0.3-0.3,0.4-0.4c0.2-0.2,0.3-0.4,0.5-0.5c0.2-0.2,0.3-0.4,0.5-0.5
    c15.3,2.1,31.3-2.7,43-14.4c19.9-19.9,19.9-52.2,0-72s-52.2-19.9-72,0c-11.7,11.7-16.5,27.7-14.4,43c-0.2,0.2-0.4,0.3-0.5,0.5
    c-0.2,0.2-0.4,0.3-0.5,0.5c-0.1,0.1-0.3,0.3-0.4,0.4l-27.9,27.9c-14.6-32.3-8.7-71.7,17.8-98.2c34.2-34.2,89.8-34.2,123.9,0
    S426.5,202.4,392.3,236.6z M282.9,248.9l-0.4,0.4l-33,33l-0.4,0.4l-0.4,0.4l-26.2,26.2l-0.5,0.5l-0.4,0.4l-10,10
    c-7.4,7.4-19.4,7.4-26.8,0c-7.4-7.4-7.4-19.4,0-26.8l10-10l0.4-0.4l0.5-0.5l26.2-26.2l0.4-0.4l0.4-0.4l33-33l0.4-0.4l0.4-0.4
    l26.2-26.2l0.5-0.5l0.4-0.4l3.3-3.3c7.4-7.4,19.4-7.4,26.8,0c7.4,7.4,7.4,19.4,0,26.8l-3.3,3.3l-0.4,0.4l-0.5,0.5l-26.2,26.2
    L282.9,248.9z M236.6,392.3c-34.2,34.2-89.8,34.2-123.9,0s-34.2-89.8,0-123.9c26.5-26.5,65.9-32.4,98.2-17.8l-28.3,28.3l-0.5,0.5
    l-0.5,0.5c-15.2-2.1-31.2,2.7-42.9,14.4c-19.9,19.9-19.9,52.2,0,72s52.2,19.9,72,0c11.7-11.7,16.5-27.7,14.4-42.9l0.5-0.5l0.5-0.5
    l28.3-28.3C269,326.4,263.1,365.8,236.6,392.3z"/>
    </g>
  </symbol>
  <symbol viewBox="0 0 24 24" id="linkedin">
    <title>linkedin</title>
    <path d="M19 0h-14c-2.761 0-5 2.239-5 5v14c0 2.761 2.239 5 5 5h14c2.762 0 5-2.239 5-5v-14c0-2.761-2.238-5-5-5zm-11 19h-3v-11h3v11zm-1.5-12.268c-.966 0-1.75-.79-1.75-1.764s.784-1.764 1.75-1.764 1.75.79 1.75 1.764-.783 1.764-1.75 1.764zm13.5 12.268h-3v-5.604c0-3.368-4-3.113-4 0v5.604h-3v-11h3v1.765c1.396-2.586 7-2.777 7 2.476v6.759z"/>
  </symbol>
  <symbol width="16" height="16" viewBox="0 0 16 16" id="rightchevron">
    <title>rightchevron</title>
    <path fill-rule="evenodd" d="M4.646 1.646a.5.5 0 0 1 .708 0l6 6a.5.5 0 0 1 0 .708l-6 6a.5.5 0 0 1-.708-.708L10.293 8 4.646 2.354a.5.5 0 0 1 0-.708z"/>
  </symbol>
  <symbol width="16" height="16" viewBox="0 0 16 16" id="downchevron">
    <title>downchevron</title>
    <path fill-rule="evenodd" d="M1.646 4.646a.5.5 0 0 1 .708 0L8 10.293l5.646-5.647a.5.5 0 0 1 .708.708l-6 6a.5.5 0 0 1-.708 0l-6-6a.5.5 0 0 1 0-.708z"/>
  </symbol>
  <symbol width="16" height="16" viewBox="0 0 16 16" id="rightarrow">
    <title>rightarrow</title>
    <path fill-rule="evenodd" d="M1 8a.5.5 0 0 1 .5-.5h11.793l-3.147-3.146a.5.5 0 0 1 .708-.708l4 4a.5.5 0 0 1 0 .708l-4 4a.5.5 0 0 1-.708-.708L13.293 8.5H1.5A.5.5 0 0 1 1 8z"/>
  </symbol>
  <symbol width="16" height="16" viewBox="0 0 16 16" id="downarrow">
    <title>downarrow</title>
    <path fill-rule="evenodd" d="M8 1a.5.5 0 0 1 .5.5v11.793l3.146-3.147a.5.5 0 0 1 .708.708l-4 4a.5.5 0 0 1-.708 0l-4-4a.5.5 0 0 1 .708-.708L7.5 13.293V1.5A.5.5 0 0 1 8 1z"/>
  </symbol>
  <symbol viewBox="0 0 410.155 410.155" id="twitter">
    <title>twitter</title>
    <path d="M403.632,74.18c-9.113,4.041-18.573,7.229-28.28,9.537c10.696-10.164,18.738-22.877,23.275-37.067
  l0,0c1.295-4.051-3.105-7.554-6.763-5.385l0,0c-13.504,8.01-28.05,14.019-43.235,17.862c-0.881,0.223-1.79,0.336-2.702,0.336
  c-2.766,0-5.455-1.027-7.57-2.891c-16.156-14.239-36.935-22.081-58.508-22.081c-9.335,0-18.76,1.455-28.014,4.325
  c-28.672,8.893-50.795,32.544-57.736,61.724c-2.604,10.945-3.309,21.9-2.097,32.56c0.139,1.225-0.44,2.08-0.797,2.481
  c-0.627,0.703-1.516,1.106-2.439,1.106c-0.103,0-0.209-0.005-0.314-0.015c-62.762-5.831-119.358-36.068-159.363-85.14l0,0
  c-2.04-2.503-5.952-2.196-7.578,0.593l0,0C13.677,65.565,9.537,80.937,9.537,96.579c0,23.972,9.631,46.563,26.36,63.032
  c-7.035-1.668-13.844-4.295-20.169-7.808l0,0c-3.06-1.7-6.825,0.485-6.868,3.985l0,0c-0.438,35.612,20.412,67.3,51.646,81.569
  c-0.629,0.015-1.258,0.022-1.888,0.022c-4.951,0-9.964-0.478-14.898-1.421l0,0c-3.446-0.658-6.341,2.611-5.271,5.952l0,0
  c10.138,31.651,37.39,54.981,70.002,60.278c-27.066,18.169-58.585,27.753-91.39,27.753l-10.227-0.006
  c-3.151,0-5.816,2.054-6.619,5.106c-0.791,3.006,0.666,6.177,3.353,7.74c36.966,21.513,79.131,32.883,121.955,32.883
  c37.485,0,72.549-7.439,104.219-22.109c29.033-13.449,54.689-32.674,76.255-57.141c20.09-22.792,35.8-49.103,46.692-78.201
  c10.383-27.737,15.871-57.333,15.871-85.589v-1.346c-0.001-4.537,2.051-8.806,5.631-11.712c13.585-11.03,25.415-24.014,35.16-38.591
  l0,0C411.924,77.126,407.866,72.302,403.632,74.18L403.632,74.18z"/>
  </symbol>
</svg>
