<svg xmlns="http://www.w3.org/2000/svg" width="512" height="512" viewBox="0 0 512 512"><path d="M427.91,414.48a9,9,0,0,1-8.9-7.62L400.36,286.73,381.42,406.88a9,9,0,0,1-8.89,7.6H328.72a9,9,0,0,1-8.92-7.82L288.49,170.14l-43.44,258.4a9,9,0,0,1-15.79,4.27L214,414.48H144.65a9,9,0,0,1-8.44-5.87L101,313.9,69.23,408.35a9,9,0,0,1-8.53,6.13H6v32.93A58.77,58.77,0,0,0,64.59,506H447.41A58.77,58.77,0,0,0,506,447.41v-3.16l-20.71-29.77Z" fill="#003b71"/><path d="M447.41,6H64.59A58.77,58.77,0,0,0,6,64.59V396.48H54.23L92.1,284.06a9,9,0,0,1,8.39-6.13h.14a9,9,0,0,1,8.43,5.86l41.85,112.69h67.26a9,9,0,0,1,6.9,3.23l5.47,6.55,50.13-298.2a9,9,0,0,1,8.88-7.5h.16a9,9,0,0,1,8.76,7.82l38.14,288.1h28.22l26.7-169.36a9,9,0,0,1,8.89-7.6h0a9,9,0,0,1,8.89,7.62l26.3,169.34H490a9,9,0,0,1,7.39,3.86L506,412.73V64.59A58.77,58.77,0,0,0,447.41,6Z" fill="#003b71"/><path d="M506,444.25V412.73l-8.61-12.39a9,9,0,0,0-7.39-3.86H435.62l-26.3-169.34a9,9,0,0,0-8.89-7.62h0a9,9,0,0,0-8.89,7.6l-26.7,169.36H336.61l-38.14-288.1a9,9,0,0,0-8.76-7.82h-.16a9,9,0,0,0-8.88,7.5l-50.13,298.2-5.47-6.55a9,9,0,0,0-6.9-3.23H150.91L109.06,283.79a9,9,0,0,0-8.43-5.86h-.14a9,9,0,0,0-8.39,6.13L54.23,396.48H6v18H60.7a9,9,0,0,0,8.53-6.13L101,313.9l35.17,94.71a9,9,0,0,0,8.44,5.87H214l15.3,18.33a9,9,0,0,0,15.79-4.27l43.44-258.4L319.8,406.66a9,9,0,0,0,8.92,7.82h43.81a9,9,0,0,0,8.89-7.6l18.94-120.15L419,406.86a9,9,0,0,0,8.9,7.62h57.38Z" fill="#fff"/></svg>